<svg xmlns="http://www.w3.org/2000/svg" xmlns:xlink="http://www.w3.org/1999/xlink" width="264" height="64" viewBox="0 0 264 64"><defs><style>.a{fill:url(#a);}.b{fill:#5b5b5f;}</style><linearGradient id="a" x1="0.159" y1="1" x2="0.841" gradientUnits="objectBoundingBox"><stop offset="0" stop-color="#46a29d"/><stop offset="0.145" stop-color="#3c649a"/><stop offset="0.295" stop-color="#0e397e"/><stop offset="0.44" stop-color="#421e6b"/><stop offset="0.63" stop-color="#991a66"/><stop offset="0.723" stop-color="#b23b59"/><stop offset="0.837" stop-color="#ca5b4b"/><stop offset="1" stop-color="#f7bc5e"/></linearGradient></defs><path class="a" d="M28.023,64a4.357,4.357,0,0,1-.889-.114,3.094,3.094,0,0,1-1.412-.793,2.143,2.143,0,0,1-.423-.6,3.144,3.144,0,0,1-.22-.663A4.768,4.768,0,0,1,25,61.119v-1.09c0-.087,0-.175,0-.26V46.313c0-.057,0-.122,0-.189V42.433s-.083-1.8,1.091-2.363h0a1.581,1.581,0,0,1,.363-.142h0s.042-.012.1-.025l.007,0h0a2.709,2.709,0,0,1,1.9.381c.11.069.365.239.769.557l5.8,4.562.247.194.034.027h0a13.036,13.036,0,0,0,1.995,1.322,3.534,3.534,0,0,0,2.359.237,2.7,2.7,0,0,0,.279-.078c.042-.014.086-.025.127-.04a6.7,6.7,0,0,0,1.947-1.325l7.11-7.05q3.48-3.432,6.974-6.854l6.944-6.8c.265-.258.51-.533.781-.785a16.592,16.592,0,0,1,1.956-1.632,4.578,4.578,0,0,1,.432-.288c0-.008.02-.023.069-.05,1.291-.75,2.886-1.074,4.074.022a3,3,0,0,1,.775,1.487c.008.034.016.076.024.115s.019.1.031.152a5.671,5.671,0,0,1,.081.765V29.7c-.007.16-.01.313-.01.449V56.744c0,1.537.221,3.78-.4,5.4a3.337,3.337,0,0,1-1.1,1.44,2.429,2.429,0,0,1-1.3.412Zm-1.412-2.683a1.685,1.685,0,0,0,.554.922,1.612,1.612,0,0,0,.467.215,3.312,3.312,0,0,0,.444.086h.006a17.016,17.016,0,0,0,1.717.011H68.066a1.6,1.6,0,0,0,.976-.373,2.246,2.246,0,0,0,.578-1.153c.021-.1.039-.2.055-.305,0-.012,0-.022.007-.035h0a23.182,23.182,0,0,0,.033-3.447V25.669a4.931,4.931,0,0,0-.18-1.787c-.461-1.168-1.634-.82-2.488-.3-2.538,1.551-4.957,4.507-7.147,6.652Q51.564,38.4,43.278,46.625l0,0L43.2,46.7l-.253.252a8.855,8.855,0,0,1-1.882,1.408,4.779,4.779,0,0,1-2.817.493,3.639,3.639,0,0,1-.616-.121,4.613,4.613,0,0,1-1.364-.6v0a26.291,26.291,0,0,1-3.226-2.368l-4.068-3.216c-.879-.694-2.385-1.891-2.445-.024-.019.607,0,1.219,0,1.828v16.36c.006,0,.006.007,0,.006A5.792,5.792,0,0,0,26.611,61.317ZM4.017,64c-.1,0-.236-.012-.349-.024a5.926,5.926,0,0,1-1.192-.264C.15,62.9.035,60.353.035,58.306V9.772c0-2.139-.237-4.551.521-6.581A4.936,4.936,0,0,1,4.264.083,6.351,6.351,0,0,1,5.079,0H67.557s.252.006.5.032A4.021,4.021,0,0,1,69.08.276a2.658,2.658,0,0,1,.361.194A1.6,1.6,0,0,1,69.623.6l.053.04a3.337,3.337,0,0,1,.62.633.8.8,0,0,1,.135.388.849.849,0,0,1-.236.516l-.143.142L42.868,29.032a8.619,8.619,0,0,1-5.209,2.511c-2.59.213-4.61-1.287-6.489-2.814l-4.493-3.652-4.493-3.651c-1.223-.994-2.318-2.041-3.54-2.988a7.259,7.259,0,0,0-1.827-1.059c-2.33-.6-2.8,2.068-2.8,4v35.09c0,1.468.26,3.661-.239,5.307a3.19,3.19,0,0,1-3.047,2.22h-.006L10.588,64l-.085,0L9.727,64ZM3.031,2.23C1.756,3.367,1.56,5.031,1.56,6.646V59.436c0,1.657.747,3.034,2.6,3.034h5.968c1.132,0,2.067-.111,2.307-1.8a25.876,25.876,0,0,0,.053-3.6V21.48a11.776,11.776,0,0,1,.309-2.967h0s.037-.193.123-.473a3.316,3.316,0,0,1,2.811-2.392,5.174,5.174,0,0,1,3.226,1.136h0c2.758,1.933,5.254,4.342,7.869,6.467l5.091,4.138c1.681,1.367,3.387,2.837,5.742,2.642a6.927,6.927,0,0,0,4.13-2.068q7.147-7.027,14.3-14.051l9.442-9.28,2.8-2.75c.064-.062.13-.134.2-.207a.621.621,0,0,0-.086-.037c-.019-.008-.041-.015-.061-.022a4.464,4.464,0,0,0-1.158-.13c-.291.006-.575.024-.828.024H6.233c-.168,0-.368-.005-.588-.005A3.9,3.9,0,0,0,3.031,2.23Z" transform="translate(0)"/><path class="b" d="M50.108,23.52a.615.615,0,0,1-.357-.4q-.375-1.111-.833-2.559t-.9-2.728q-.511-1.516-1.02-3.1H39.282q-.51,1.583-1.02,3.1-.441,1.279-.9,2.728t-.833,2.559a.611.611,0,0,1-.374.4.856.856,0,0,1-.527.034.7.7,0,0,1-.407-.287.555.555,0,0,1-.051-.521q.748-2.223,1.462-4.445c.3-.928.608-1.857.915-2.785l0-.016,1.249-3.81c0-.019.007-.037.013-.057L42.477.521a.688.688,0,0,1,1.326,0l3.671,11.112c.006.02.008.04.014.059l1.863,5.685,0,0c.1.307.2.614.3.922q.713,2.223,1.461,4.445a.525.525,0,0,1-.068.521.784.784,0,0,1-.425.287.8.8,0,0,1-.2.027A.82.82,0,0,1,50.108,23.52ZM42,6.447C41.5,7.955,41,9.475,40.5,11l-.773,2.354h6.826l-.733-2.239q-.77-2.341-1.541-4.665c-.386-1.163-.76-2.339-1.139-3.512C42.762,4.108,42.387,5.284,42,6.447ZM78.718,23.574a.588.588,0,0,1-.442-.336q-1.292-2.29-2.533-4.547-1.2-2.184-2.452-4.4l-1.009-1.793H67.263v9.53a1.315,1.315,0,0,1-.459,1.061,1.948,1.948,0,0,1-.937.43V21.905s0-.006,0-.007l0-1.523V.709a.683.683,0,0,1,.2-.505.655.655,0,0,1,.476-.2h6.492A7.072,7.072,0,0,1,76.1.676,5.791,5.791,0,0,1,78.446,2.7a6.338,6.338,0,0,1,1.121,3.553A5.713,5.713,0,0,1,78.446,9.8a6.34,6.34,0,0,1-2.4,2.02,6.844,6.844,0,0,1-2.125.608L75.4,15.185c.516.935,1.032,1.873,1.548,2.8q1.257,2.258,2.55,4.547a.687.687,0,0,1,.033.556.78.78,0,0,1-.322.386.732.732,0,0,1-.387.108A.864.864,0,0,1,78.718,23.574ZM67.263,11.08h5.948a5.258,5.258,0,0,0,1.665-.268,4.774,4.774,0,0,0,1.462-.775,4.908,4.908,0,0,0,1.1-1.212,4.436,4.436,0,0,0,.629-1.549,4.4,4.4,0,0,0,.033-1.8,5.39,5.39,0,0,0-.612-1.668A4.849,4.849,0,0,0,76.356,2.46a4.514,4.514,0,0,0-1.615-.842,6.459,6.459,0,0,0-2.108-.269q-1.121.033-2.141.033H67.263Zm34,11.461a11.618,11.618,0,0,1-3.959-2.879A11.753,11.753,0,0,1,94.841,15.4a11.531,11.531,0,0,1-.544-3.721,11.914,11.914,0,0,1,.629-3.653,12.111,12.111,0,0,1,1.716-3.284A11.427,11.427,0,0,1,99.362,2.1a11.623,11.623,0,0,1,3.79-1.717A12.361,12.361,0,0,1,107.2.047a12.151,12.151,0,0,1,3.926,1.011,11.721,11.721,0,0,1,3.433,2.324.645.645,0,0,1,.22.5.683.683,0,0,1-.2.455.784.784,0,0,1-.476.218.621.621,0,0,1-.527-.2,10.074,10.074,0,0,0-3.416-2.189,11.122,11.122,0,0,0-3.926-.758,10.8,10.8,0,0,0-3.926.707,10.262,10.262,0,0,0-5.591,5.2,10.576,10.576,0,0,0-.951,3.486,10.76,10.76,0,0,0,.272,3.6,9.859,9.859,0,0,0,1.53,3.351,10.106,10.106,0,0,0,2.906,2.761,10.536,10.536,0,0,0,3.636,1.448,11.22,11.22,0,0,0,3.926.05,10.233,10.233,0,0,0,2.376-.68l.075-.033c.12-.052.239-.107.357-.163l.11-.052c.29-.143.575-.3.855-.469.011-.006.021-.009.032-.015a4.045,4.045,0,0,0,1.659-1.6l.006-2.226,0,0V12.473h-7.308a.6.6,0,0,1-.51-.218.741.741,0,0,1,0-.944.607.607,0,0,1,.51-.218h7.988a.7.7,0,0,1,.51.2.68.68,0,0,1,.2.5V17.44l-.044,1.25h0A3.783,3.783,0,0,1,114.6,19.8a3.939,3.939,0,0,1-.708.968,8.727,8.727,0,0,1-.713.575,7.747,7.747,0,0,1-1.1.712l-.033,0a12.425,12.425,0,0,1-1.632.763l-.071.029v0a12.108,12.108,0,0,1-3.351.708q-.425.029-.846.029A11.994,11.994,0,0,1,101.265,22.541Zm75.968.87a.593.593,0,0,1-.221-.5V2.581c-1.186,1.392-2.372,2.783-3.552,4.162-.572.669-1.154,1.343-1.732,2.016v0c-.17.2-.329.389-.48.564-.013.014-.026.029-.038.044-.356.409-.655.73-.9.99a6.868,6.868,0,0,1-.558.55c-.088.082-.172.154-.248.214a2.667,2.667,0,0,1-.316.217,2.305,2.305,0,0,1-2.7-.517l-.216-.221h0l-.225-.23q-1.551-1.817-3.1-3.623-1.785-2.071-3.57-4.167V22.031a1.362,1.362,0,0,1-.458,1.078,1.9,1.9,0,0,1-.916.443V.581a.676.676,0,0,1,.423-.505.591.591,0,0,1,.748.135q2.378,2.8,4.758,5.557,1.543,1.792,3.087,3.6l.222.242h0l.068.073a1.856,1.856,0,0,0,.372.307l.013.007c.019.011.039.02.058.029a1.007,1.007,0,0,0,.15.057.2.2,0,0,0,.022.006A1.173,1.173,0,0,0,169.13,9.6v0c.128-.133.287-.3.459-.491s.342-.4.512-.6l.052-.064v0c.768-.9,1.534-1.8,2.3-2.687q2.378-2.761,4.758-5.557a.591.591,0,0,1,.748-.135.67.67,0,0,1,.442.64V22.908a.593.593,0,0,1-.221.5.757.757,0,0,1-.951,0Zm-46.906.168a.693.693,0,0,1-.51-.2.68.68,0,0,1-.2-.505V.716a.68.68,0,0,1,.2-.505.693.693,0,0,1,.51-.2h12.3a.559.559,0,0,1,.493.219.8.8,0,0,1,0,.942.557.557,0,0,1-.493.219H131.008v9.7h9.381a.605.605,0,0,1,.51.219.783.783,0,0,1,0,.976.605.605,0,0,1-.51.219h-9.381v9.7h11.624a.559.559,0,0,1,.493.219.8.8,0,0,1,0,.943.559.559,0,0,1-.493.218Zm-111.09-.168a.593.593,0,0,1-.222-.5V2.581c-1.185,1.392-2.371,2.783-3.551,4.162-.573.669-1.154,1.343-1.732,2.016v0c-.17.2-.329.389-.481.564l-.037.044c-.356.409-.655.73-.9.99a6.858,6.858,0,0,1-.558.55c-.089.082-.173.154-.248.214a2.663,2.663,0,0,1-.316.217,2.305,2.305,0,0,1-2.7-.517L8.272,10.6h0l-.225-.23Q6.5,8.549,4.945,6.743,3.16,4.672,1.375,2.577V22.031a1.362,1.362,0,0,1-.459,1.078A1.9,1.9,0,0,1,0,23.552V.581A.679.679,0,0,1,.424.076.591.591,0,0,1,1.172.21q2.378,2.8,4.758,5.557,1.543,1.792,3.087,3.6l.222.242h0l.068.073a1.857,1.857,0,0,0,.372.307L9.692,10c.019.011.038.02.058.029a.969.969,0,0,0,.15.057.2.2,0,0,0,.022.006A1.173,1.173,0,0,0,11.135,9.6v0c.128-.133.287-.3.459-.491s.342-.4.512-.6l.052-.064v0c.767-.9,1.534-1.8,2.3-2.687Q16.84,3.006,19.22.21a.591.591,0,0,1,.748-.135.67.67,0,0,1,.442.64V22.908a.593.593,0,0,1-.221.5.757.757,0,0,1-.951,0Z" transform="translate(85.595 20.418)"/></svg>